<svg width="48" height="48" viewBox="0 0 48 48" fill="none" xmlns="http://www.w3.org/2000/svg">
<path d="M17.7081 13.6758C17.7081 13.6758 19.6432 9.74908 23.0732 9.76568C26.5033 9.78226 29.7652 11.7547 29.0998 19.1656C29.0998 19.1656 35.1169 12.3498 41.719 15.5422C48.3208 18.7345 46.6221 25.6646 43.1073 27.9985C41.22 29.2516 35.5089 31.3484 27.2031 25.1177C18.8975 18.8872 13.3909 14.5361 9.34872 14.5543C4.76011 14.5724 1.29171 18.2091 1.50974 22.5519C1.74863 27.1765 4.63007 29.4771 10.7885 29.4771C16.8268 29.4771 19.2777 25.5736 19.2777 25.5736" stroke="#F39205" stroke-width="3" stroke-miterlimit="10"/>
<path d="M14.2419 34.5351C14.2419 34.5351 23.867 28.4554 33.8037 34.5351C33.8037 34.5351 29.6164 43.199 24.1019 46.2391C24.0964 46.2439 15.1768 39.0785 14.2419 34.5351Z" stroke="#F39205" stroke-width="3" stroke-miterlimit="10"/>
<path d="M18.3376 40.8655C18.3376 40.8655 24.1176 36.556 29.8497 40.8655" stroke="#F39205" stroke-width="3" stroke-miterlimit="10"/>
<path d="M25.927 10.3788C25.927 10.3788 26.7224 2.57684 31.334 2" stroke="#F39205" stroke-width="3" stroke-miterlimit="10"/>
<path d="M20.4115 10.3788C20.4115 10.3788 19.6181 2.57684 15.0066 2" stroke="#F39205" stroke-width="3" stroke-miterlimit="10"/>
</svg>
