<svg width="169" height="48" viewBox="0 0 169 48" fill="none" xmlns="http://www.w3.org/2000/svg">
<path d="M15.544 24.4852C15.544 27.0355 14.914 29.0594 13.654 30.5569C12.394 32.0545 10.551 32.8031 8.12398 32.8031C5.60398 32.8031 3.04898 32.1012 0.458984 30.6973V6.48047H4.48399V17.0096C5.55699 15.9333 6.47899 15.2196 7.24899 14.8686C8.01899 14.4944 8.81298 14.3071 9.62898 14.3071C11.496 14.3071 12.943 15.0324 13.969 16.4831C15.019 17.9338 15.544 19.9695 15.544 22.59V24.4852ZM8.54399 18.0625C7.98399 18.0625 7.38899 18.2263 6.75899 18.5538C6.15299 18.8814 5.39399 19.5249 4.48399 20.4841V28.4511C5.11399 28.7086 5.68598 28.8958 6.19898 29.0127C6.73598 29.1297 7.26099 29.1881 7.77399 29.1881C9.08099 29.1881 10.014 28.7669 10.574 27.9246C11.134 27.0823 11.414 25.9359 11.414 24.4852V22.59C11.414 21.0224 11.158 19.8758 10.644 19.1505C10.154 18.4251 9.45399 18.0625 8.54399 18.0625Z" fill="#202020"/>
<path d="M33.658 31.4338C32.445 31.9251 31.302 32.2761 30.228 32.4867C29.155 32.6973 28.14 32.8026 27.183 32.8026C24.546 32.8026 22.551 32.0539 21.198 30.5563C19.845 29.0589 19.168 27.0701 19.168 24.5899V22.4841C19.168 20.8229 19.471 19.384 20.078 18.1672C20.685 16.9505 21.548 16.0029 22.668 15.3244C23.788 14.6459 25.107 14.3066 26.623 14.3066C27.86 14.3066 29.015 14.564 30.088 15.0787C31.185 15.5701 32.072 16.3539 32.748 17.4302C33.448 18.4831 33.798 19.8403 33.798 21.5014C33.798 21.9928 33.763 22.5193 33.694 23.0807C33.624 23.6189 33.507 24.1922 33.343 24.8005H23.053C23.1 26.2512 23.461 27.3393 24.138 28.0645C24.815 28.7899 25.9 29.1526 27.393 29.1526C28.187 29.1526 29.003 29.0589 29.843 28.8717C30.707 28.6846 31.593 28.4038 32.503 28.0294L33.658 31.4338ZM26.623 17.7109C25.55 17.7109 24.71 18.0619 24.103 18.7638C23.52 19.4425 23.182 20.4251 23.088 21.712H29.808C29.832 21.595 29.843 21.4898 29.843 21.3961C29.843 21.2792 29.843 21.1739 29.843 21.0802C29.843 19.9572 29.528 19.1148 28.898 18.5532C28.268 17.9918 27.51 17.7109 26.623 17.7109Z" fill="#202020"/>
<path d="M51.9119 31.4338C50.6989 31.9251 49.5559 32.2761 48.4819 32.4867C47.4089 32.6973 46.3939 32.8026 45.4369 32.8026C42.7999 32.8026 40.8049 32.0539 39.4519 30.5563C38.0979 29.0589 37.4219 27.0701 37.4219 24.5899V22.4841C37.4219 20.8229 37.7249 19.384 38.3319 18.1672C38.9389 16.9505 39.8019 16.0029 40.9219 15.3244C42.0419 14.6459 43.3599 14.3066 44.8769 14.3066C46.1139 14.3066 47.2689 14.564 48.3419 15.0787C49.4389 15.5701 50.3259 16.3539 51.0019 17.4302C51.7019 18.4831 52.0519 19.8403 52.0519 21.5014C52.0519 21.9928 52.0169 22.5193 51.9469 23.0807C51.8769 23.6189 51.7609 24.1922 51.5969 24.8005H41.3069C41.3539 26.2512 41.7149 27.3393 42.3919 28.0645C43.0689 28.7899 44.1539 29.1526 45.6469 29.1526C46.4409 29.1526 47.2569 29.0589 48.0969 28.8717C48.9609 28.6846 49.8469 28.4038 50.7569 28.0294L51.9119 31.4338ZM44.8769 17.7109C43.8039 17.7109 42.9639 18.0619 42.3569 18.7638C41.7739 19.4425 41.4349 20.4251 41.3419 21.712H48.0619C48.0859 21.595 48.0969 21.4898 48.0969 21.3961C48.0969 21.2792 48.0969 21.1739 48.0969 21.0802C48.0969 19.9572 47.7819 19.1148 47.1519 18.5532C46.5219 17.9918 45.7639 17.7109 44.8769 17.7109Z" fill="#202020"/>
<path d="M68.6666 29.2929C69.5296 29.2929 70.2416 29.1526 70.8016 28.8717C71.3616 28.5676 71.6416 28.123 71.6416 27.5381C71.6416 27.0234 71.4546 26.6256 71.0816 26.3447C70.7316 26.0406 70.0896 25.7715 69.1566 25.5375L67.1616 25.0111C65.6216 24.6133 64.4776 23.9466 63.7316 23.0106C63.0076 22.0747 62.6466 20.9633 62.6466 19.6764C62.6466 18.1556 63.1716 16.8804 64.2216 15.8508C65.2716 14.8213 66.8926 14.3066 69.0866 14.3066C69.9726 14.3066 70.9066 14.4119 71.8866 14.6225C72.8666 14.8331 73.8936 15.1723 74.9666 15.6403L73.8116 19.0797C72.8316 18.6118 71.9446 18.2843 71.1516 18.0971C70.3576 17.9099 69.6586 17.8162 69.0516 17.8162C67.3946 17.8162 66.5666 18.3778 66.5666 19.5009C66.5666 19.9456 66.7066 20.2964 66.9866 20.5538C67.2896 20.8113 67.8376 21.0452 68.6316 21.2558L70.6266 21.7822C72.3296 22.2268 73.5666 22.9053 74.3366 23.8178C75.1296 24.7304 75.5266 25.8768 75.5266 27.2573C75.5266 28.8952 74.9666 30.2289 73.8466 31.2584C72.7496 32.2879 71.0116 32.8026 68.6316 32.8026C66.6016 32.8026 64.4666 32.3347 62.2266 31.3987L63.3116 28.0645C64.4076 28.5091 65.3996 28.8249 66.2866 29.0121C67.1726 29.1993 67.9666 29.2929 68.6666 29.2929Z" fill="#202020"/>
<path d="M82.7379 22.5193V24.5899C82.7379 26.0874 83.0059 27.2106 83.5429 27.9592C84.0799 28.708 84.9429 29.0823 86.1329 29.0823C86.7159 29.0823 87.3699 29.0121 88.0929 28.8717C88.8399 28.708 89.6449 28.4623 90.5079 28.1347L91.6629 31.5391C90.6129 31.9603 89.6209 32.2761 88.6879 32.4867C87.7549 32.6973 86.8329 32.8026 85.9229 32.8026C83.5899 32.8026 81.8049 32.0539 80.5679 30.5563C79.3309 29.0589 78.7129 27.0701 78.7129 24.5899V22.5193C78.7129 20.0157 79.3309 18.0268 80.5679 16.5527C81.8049 15.0553 83.5899 14.3066 85.9229 14.3066C86.8099 14.3066 87.7079 14.4119 88.6179 14.6225C89.5279 14.8331 90.4849 15.1372 91.4879 15.535L90.3329 19.0096C88.6529 18.3544 87.2529 18.0268 86.1329 18.0268C84.9429 18.0268 84.0799 18.4012 83.5429 19.15C83.0059 19.8753 82.7379 20.9985 82.7379 22.5193Z" fill="#202020"/>
<path d="M104.028 18.0625C103.445 18.0625 102.78 18.2029 102.033 18.4836C101.286 18.7644 100.4 19.3143 99.3727 20.1331V32.4521H95.3477V6.48047H99.3727V16.8691C100.446 15.9567 101.45 15.3015 102.383 14.9038C103.316 14.506 104.273 14.3071 105.253 14.3071C106.956 14.3071 108.251 14.857 109.138 15.9567C110.025 17.0329 110.468 18.5538 110.468 20.5193V32.4521H106.443V21.0106C106.443 19.0452 105.638 18.0625 104.028 18.0625Z" fill="#202020"/>
<path d="M163.045 26.1462V5.19336H167.069V26.1462C167.069 26.4972 167.151 26.8364 167.315 27.1639C167.502 27.4682 167.851 27.6202 168.364 27.6202H168.925V31.3405H167.946C166.615 31.3405 165.6 31.083 164.899 30.5683C164.199 30.0537 163.709 29.3984 163.43 28.603C163.173 27.8074 163.045 26.9885 163.045 26.1462Z" fill="#202020"/>
<path d="M131.421 13.3301C131.421 13.3301 133.141 9.40337 136.19 9.41997C139.239 9.43657 142.138 11.409 141.547 18.8199C141.547 18.8199 146.895 12.0041 152.764 15.1965C158.632 18.3888 157.122 25.3189 153.998 27.6528C152.32 28.9059 147.244 31.0027 139.861 24.772C132.478 18.5415 127.583 14.1904 123.99 14.2086C119.912 14.2267 116.829 17.8634 117.022 22.2062C117.235 26.8308 119.796 29.1314 125.27 29.1314C130.637 29.1314 132.816 25.2279 132.816 25.2279" stroke="#F39205" stroke-width="3" stroke-miterlimit="10"/>
<path d="M128.34 34.1894C128.34 34.1894 136.895 28.1097 145.728 34.1894C145.728 34.1894 142.006 42.8532 137.104 45.8933C137.099 45.8981 129.171 38.7328 128.34 34.1894Z" stroke="#F39205" stroke-width="3" stroke-miterlimit="10"/>
<path d="M131.98 40.5198C131.98 40.5198 137.118 36.2103 142.213 40.5198" stroke="#F39205" stroke-width="3" stroke-miterlimit="10"/>
<path d="M138.727 10.0331C138.727 10.0331 139.434 2.2312 143.533 1.6543" stroke="#F39205" stroke-width="3" stroke-miterlimit="10"/>
<path d="M133.824 10.0331C133.824 10.0331 133.119 2.2312 129.02 1.6543" stroke="#F39205" stroke-width="3" stroke-miterlimit="10"/>
</svg>
