<svg width="1440" height="1638" viewBox="0 0 1440 1638" fill="none" xmlns="http://www.w3.org/2000/svg">
<path d="M0.5 0.5H1439.5V1522.23L1439.34 1522.22C1438.89 1522.21 1438.22 1522.18 1437.34 1522.15C1436.49 1522.12 1435.46 1522.09 1434.24 1522.05C1432.9 1522 1431.34 1521.95 1429.57 1521.9C1422.8 1521.7 1412.92 1521.45 1400.5 1521.23C1375.66 1520.81 1340.66 1520.55 1300.02 1521.21C1218.72 1522.54 1114.82 1527.56 1024.42 1542.35C961.391 1552.66 907.932 1567.64 854.296 1582.67C832.359 1588.82 810.392 1594.98 787.729 1600.83C709.641 1620.98 623.198 1637.5 501 1637.5C338.81 1637.5 213.614 1608.7 128.974 1579.9C86.6528 1565.5 54.4706 1551.11 32.872 1540.31C22.0727 1534.91 13.9194 1530.42 8.46772 1527.27C5.74188 1525.7 3.69146 1524.46 2.32341 1523.62C1.63939 1523.2 1.12596 1522.88 0.783998 1522.66C0.6704 1522.59 0.575723 1522.53 0.5 1522.48V0.5Z" fill="#F6F6FF" stroke="black"/>
</svg>
