<svg width="169" height="48" viewBox="0 0 169 48" fill="none" xmlns="http://www.w3.org/2000/svg">
<path d="M15.544 24.49C15.544 27.04 14.914 29.0601 13.654 30.5601C12.394 32.0501 10.551 32.8 8.12398 32.8C5.60398 32.8 3.04898 32.1 0.458984 30.7V6.47998H4.48399V17.01C5.55699 15.93 6.47899 15.22 7.24899 14.87C8.01899 14.49 8.81298 14.3101 9.62898 14.3101C11.496 14.3101 12.943 15.03 13.969 16.48C15.019 17.93 15.544 19.97 15.544 22.59V24.49ZM8.54399 18.0601C7.98399 18.0601 7.38899 18.23 6.75899 18.55C6.15299 18.88 5.39399 19.52 4.48399 20.48V28.45C5.11399 28.71 5.68598 28.9 6.19898 29.01C6.73598 29.13 7.26099 29.1899 7.77399 29.1899C9.08099 29.1899 10.014 28.77 10.574 27.92C11.134 27.08 11.414 25.94 11.414 24.49V22.59C11.414 21.02 11.158 19.88 10.644 19.15C10.154 18.42 9.45399 18.0601 8.54399 18.0601Z" fill="#FAFAFA"/>
<path d="M33.658 31.4301C32.445 31.9301 31.302 32.28 30.228 32.49C29.155 32.7 28.14 32.8 27.183 32.8C24.546 32.8 22.551 32.0501 21.198 30.5601C19.845 29.0601 19.168 27.07 19.168 24.59V22.48C19.168 20.82 19.471 19.38 20.078 18.17C20.685 16.95 21.548 15.9999 22.668 15.3199C23.788 14.6499 25.107 14.3101 26.623 14.3101C27.86 14.3101 29.015 14.56 30.088 15.08C31.185 15.57 32.072 16.3501 32.748 17.4301C33.448 18.4801 33.798 19.84 33.798 21.5C33.798 21.99 33.763 22.52 33.694 23.08C33.624 23.62 33.507 24.19 33.343 24.8H23.053C23.1 26.25 23.461 27.3401 24.138 28.0601C24.815 28.7901 25.9 29.15 27.393 29.15C28.187 29.15 29.003 29.06 29.843 28.87C30.707 28.69 31.593 28.4 32.503 28.03L33.658 31.4301ZM26.623 17.71C25.55 17.71 24.71 18.06 24.103 18.76C23.52 19.44 23.182 20.43 23.088 21.71H29.808C29.832 21.6 29.843 21.49 29.843 21.4C29.843 21.28 29.843 21.17 29.843 21.08C29.843 19.96 29.528 19.12 28.898 18.55C28.268 17.99 27.51 17.71 26.623 17.71Z" fill="#FAFAFA"/>
<path d="M51.9119 31.4301C50.6989 31.9301 49.5559 32.28 48.4819 32.49C47.4089 32.7 46.3939 32.8 45.4369 32.8C42.7999 32.8 40.8049 32.0501 39.4519 30.5601C38.0979 29.0601 37.4219 27.07 37.4219 24.59V22.48C37.4219 20.82 37.7249 19.38 38.3319 18.17C38.9389 16.95 39.8019 15.9999 40.9219 15.3199C42.0419 14.6499 43.3599 14.3101 44.8769 14.3101C46.1139 14.3101 47.2689 14.56 48.3419 15.08C49.4389 15.57 50.3259 16.3501 51.0019 17.4301C51.7019 18.4801 52.0519 19.84 52.0519 21.5C52.0519 21.99 52.0169 22.52 51.9469 23.08C51.8769 23.62 51.7609 24.19 51.5969 24.8H41.3069C41.3539 26.25 41.7149 27.3401 42.3919 28.0601C43.0689 28.7901 44.1539 29.15 45.6469 29.15C46.4409 29.15 47.2569 29.06 48.0969 28.87C48.9609 28.69 49.8469 28.4 50.7569 28.03L51.9119 31.4301ZM44.8769 17.71C43.8039 17.71 42.9639 18.06 42.3569 18.76C41.7739 19.44 41.4349 20.43 41.3419 21.71H48.0619C48.0859 21.6 48.0969 21.49 48.0969 21.4C48.0969 21.28 48.0969 21.17 48.0969 21.08C48.0969 19.96 47.7819 19.12 47.1519 18.55C46.5219 17.99 45.7639 17.71 44.8769 17.71Z" fill="#FAFAFA"/>
<path d="M68.6666 29.29C69.5296 29.29 70.2416 29.15 70.8016 28.87C71.3616 28.57 71.6416 28.12 71.6416 27.54C71.6416 27.02 71.4546 26.63 71.0816 26.35C70.7316 26.04 70.0896 25.77 69.1566 25.54L67.1616 25.01C65.6216 24.61 64.4776 23.95 63.7316 23.01C63.0076 22.08 62.6466 20.9601 62.6466 19.6801C62.6466 18.1601 63.1716 16.88 64.2216 15.85C65.2716 14.82 66.8926 14.3101 69.0866 14.3101C69.9726 14.3101 70.9066 14.41 71.8866 14.62C72.8666 14.83 73.8936 15.17 74.9666 15.64L73.8116 19.08C72.8316 18.61 71.9446 18.28 71.1516 18.1C70.3576 17.91 69.6586 17.8199 69.0516 17.8199C67.3946 17.8199 66.5666 18.38 66.5666 19.5C66.5666 19.95 66.7066 20.3 66.9866 20.55C67.2896 20.81 67.8376 21.05 68.6316 21.26L70.6266 21.78C72.3296 22.23 73.5666 22.9099 74.3366 23.8199C75.1296 24.7299 75.5266 25.88 75.5266 27.26C75.5266 28.9 74.9666 30.23 73.8466 31.26C72.7496 32.29 71.0116 32.8 68.6316 32.8C66.6016 32.8 64.4666 32.34 62.2266 31.4L63.3116 28.0601C64.4076 28.5101 65.3996 28.83 66.2866 29.01C67.1726 29.2 67.9666 29.29 68.6666 29.29Z" fill="#FAFAFA"/>
<path d="M82.7379 22.52V24.59C82.7379 26.09 83.0059 27.21 83.5429 27.96C84.0799 28.71 84.9429 29.08 86.1329 29.08C86.7159 29.08 87.3699 29.01 88.0929 28.87C88.8399 28.71 89.6449 28.46 90.5079 28.14L91.6629 31.54C90.6129 31.96 89.6209 32.28 88.6879 32.49C87.7549 32.7 86.8329 32.8 85.9229 32.8C83.5899 32.8 81.8049 32.0501 80.5679 30.5601C79.3309 29.0601 78.7129 27.07 78.7129 24.59V22.52C78.7129 20.02 79.3309 18.03 80.5679 16.55C81.8049 15.06 83.5899 14.3101 85.9229 14.3101C86.8099 14.3101 87.7079 14.41 88.6179 14.62C89.5279 14.83 90.4849 15.14 91.4879 15.54L90.3329 19.01C88.6529 18.35 87.2529 18.03 86.1329 18.03C84.9429 18.03 84.0799 18.4 83.5429 19.15C83.0059 19.88 82.7379 21 82.7379 22.52Z" fill="#FAFAFA"/>
<path d="M104.028 18.0601C103.445 18.0601 102.78 18.2 102.033 18.48C101.286 18.76 100.4 19.31 99.3727 20.13V32.45H95.3477V6.47998H99.3727V16.87C100.446 15.96 101.45 15.3 102.383 14.9C103.316 14.51 104.273 14.3101 105.253 14.3101C106.956 14.3101 108.251 14.86 109.138 15.96C110.025 17.03 110.468 18.55 110.468 20.52V32.45H106.443V21.01C106.443 19.05 105.638 18.0601 104.028 18.0601Z" fill="#FAFAFA"/>
<path d="M163.045 26.15V5.18994H167.069V26.15C167.069 26.5 167.151 26.84 167.315 27.16C167.502 27.47 167.851 27.62 168.364 27.62H168.925V31.34H167.946C166.615 31.34 165.6 31.0799 164.899 30.5699C164.199 30.0499 163.709 29.4 163.43 28.6C163.173 27.81 163.045 26.99 163.045 26.15Z" fill="#FAFAFA"/>
<path d="M131.421 13.3299C131.421 13.3299 133.141 9.4 136.19 9.42C139.239 9.44 142.138 11.4099 141.547 18.8199C141.547 18.8199 146.895 11.9999 152.764 15.1999C158.632 18.3899 157.122 25.32 153.998 27.65C152.32 28.91 147.244 31 139.861 24.77C132.478 18.54 127.583 14.1899 123.99 14.2099C119.912 14.2299 116.829 17.8599 117.022 22.2099C117.235 26.8299 119.796 29.13 125.27 29.13C130.637 29.13 132.816 25.2299 132.816 25.2299" stroke="#F39205" stroke-width="3" stroke-miterlimit="10"/>
<path d="M128.34 34.1895C128.34 34.1895 136.895 28.1095 145.728 34.1895C145.728 34.1895 142.006 42.8496 137.104 45.8896C137.099 45.8996 129.171 38.7295 128.34 34.1895Z" stroke="#F39205" stroke-width="3" stroke-miterlimit="10"/>
<path d="M131.98 40.52C131.98 40.52 137.118 36.21 142.213 40.52" stroke="#F39205" stroke-width="3" stroke-miterlimit="10"/>
<path d="M138.727 10.0299C138.727 10.0299 139.434 2.2299 143.533 1.6499" stroke="#F39205" stroke-width="3" stroke-miterlimit="10"/>
<path d="M133.824 10.0299C133.824 10.0299 133.119 2.2299 129.02 1.6499" stroke="#F39205" stroke-width="3" stroke-miterlimit="10"/>
</svg>
